<svg xmlns="http://www.w3.org/2000/svg" width="800" height="600" viewBox="0 0 800 600"><g transform="translate(-337 -50)"><rect width="800" height="600" transform="translate(337 50)" fill="#e7e7e7"/><path d="M174-144a17.359,17.359,0,0,1,12.75,5.25A17.359,17.359,0,0,1,192-126V-18a17.359,17.359,0,0,1-5.25,12.75A17.359,17.359,0,0,1,174,0H18A17.359,17.359,0,0,1,5.25-5.25,17.359,17.359,0,0,1,0-18V-126a17.359,17.359,0,0,1,5.25-12.75A17.358,17.358,0,0,1,18-144Zm6,126V-126a5.84,5.84,0,0,0-1.687-4.312A5.84,5.84,0,0,0,174-132H18a5.84,5.84,0,0,0-4.312,1.687A5.84,5.84,0,0,0,12-126V-18a5.84,5.84,0,0,0,1.687,4.312A5.84,5.84,0,0,0,18-12H174a5.84,5.84,0,0,0,4.312-1.687A5.84,5.84,0,0,0,180-18ZM42-81a20.209,20.209,0,0,1-14.812-6.187A20.209,20.209,0,0,1,21-102a20.209,20.209,0,0,1,6.187-14.812A20.21,20.21,0,0,1,42-123a20.209,20.209,0,0,1,14.812,6.187A20.209,20.209,0,0,1,63-102a20.209,20.209,0,0,1-6.187,14.812A20.209,20.209,0,0,1,42-81Zm0-30a8.679,8.679,0,0,0-6.375,2.625A8.679,8.679,0,0,0,33-102a8.679,8.679,0,0,0,2.625,6.375A8.679,8.679,0,0,0,42-93a8.679,8.679,0,0,0,6.375-2.625A8.679,8.679,0,0,0,51-102a8.679,8.679,0,0,0-2.625-6.375A8.679,8.679,0,0,0,42-111Zm77.625,8.625A8.679,8.679,0,0,1,126-105a8.679,8.679,0,0,1,6.375,2.625l33,33A8.679,8.679,0,0,1,168-63v34.5a4.34,4.34,0,0,1-1.312,3.187A4.34,4.34,0,0,1,163.5-24H28.5a4.34,4.34,0,0,1-3.187-1.312A4.34,4.34,0,0,1,24-28.5V-39a8.679,8.679,0,0,1,2.625-6.375l33-33A8.679,8.679,0,0,1,66-81a8.679,8.679,0,0,1,6.375,2.625L84-66.75ZM156-36V-61.875l-30-30-42,42-18-18-30,30V-36Z" transform="translate(641 422)" fill="#ccc"/></g></svg>